<svg viewBox="102.931 134.954 78 78" xmlns="http://www.w3.org/2000/svg">
  <defs>
    <clipPath clipPathUnits="userSpaceOnUse" id="clipPath22">
      <path d="m 205.293,16.2891 c -90.895,0 -167.9961,59.082 -195,140.9299 C 3.61328,177.465 0,199.098 0,221.582 c 0,113.383 91.9141,205.281 205.293,205.281 30.09,0 58.645,-6.531 84.395,-18.164 -1.336,-4.054 -2.375,-8.258 -3.075,-12.574 -0.652,-4.027 -1.011,-8.156 -1.043,-12.363 0.039,5.383 0.614,10.644 1.637,15.746 -24.961,11.39 -52.676,17.801 -81.914,17.801 -109.0039,0 -197.36331,-88.36 -197.36331,-197.368 0,0 34.43361,-142.1285 195.58631,-142.1285 161.164,0 199.14,142.1285 199.14,142.1285 0,29.551 -6.523,57.539 -18.164,82.704 -5.332,-1.11 -10.851,-1.692 -16.508,-1.707 7.661,0.019 15.055,1.109 22.082,3.089 0.954,0.27 1.903,0.559 2.844,0.86 4.914,-11.043 8.887,-22.598 11.813,-34.563 3.82,-15.621 5.851,-31.941 5.851,-48.742 0,-113.379 -91.902,-205.2929 -205.281,-205.2929 M 367.766,300.938 c -45.403,0 -82.2,36.804 -82.2,82.195 v 0 c 0,-45.391 36.797,-82.195 82.2,-82.195 0.058,0 0.121,0 0.183,0 -0.058,0 -0.125,0 -0.183,0 m -82.2,82.195 c 0,0.062 0,0.125 0,0.187 0,-0.062 0,-0.125 0,-0.187 m 0,0.226 c 0,0.063 0,0.125 0,0.188 0,-0.063 0,-0.125 0,-0.188 m 0,0.204 c 0,0.066 0,0.132 0.004,0.195 -0.004,-0.063 -0.004,-0.129 -0.004,-0.195" id="path20"></path>
    </clipPath>
    <radialGradient cx="0" cy="0" r="1" gradientUnits="userSpaceOnUse" gradientTransform="matrix(205.291,0,0,-205.291,205.288,221.582)" spreadMethod="pad" id="radialGradient28">
      <stop style="stop-opacity:1;stop-color:#fef207" offset="0" id="stop24"></stop>
      <stop style="stop-opacity:1;stop-color:#f2591a" offset="1" id="stop26"></stop>
    </radialGradient>
    <clipPath clipPathUnits="userSpaceOnUse" id="clipPath40">
      <path d="M 203.516,77.8125 C 42.3633,77.8125 7.92969,219.941 7.92969,219.941 c 0,109.008 88.35941,197.368 197.36331,197.368 29.238,0 56.953,-6.411 81.914,-17.801 -1.023,-5.102 -1.598,-10.363 -1.637,-15.746 0,0 0,0 0,-0.004 -0.004,-0.063 -0.004,-0.129 -0.004,-0.195 0,-0.004 0,-0.008 0,-0.016 0,-0.063 0,-0.125 0,-0.188 0,-0.011 0,-0.023 0,-0.039 0,-0.062 0,-0.125 0,-0.187 v 0 0 0 c 0,-45.391 36.797,-82.195 82.2,-82.195 0.058,0 0.125,0 0.183,0 0.012,0 0.024,0 0.035,0 5.657,0.015 11.176,0.597 16.508,1.707 11.641,-25.165 18.164,-53.153 18.164,-82.704 0,0 -37.976,-142.1285 -199.14,-142.1285" id="path38"></path>
    </clipPath>
    <radialGradient cx="0" cy="0" r="1" gradientUnits="userSpaceOnUse" gradientTransform="matrix(205.291,0,0,-205.291,205.288,221.582)" spreadMethod="pad" id="radialGradient46">
      <stop style="stop-opacity:1;stop-color:#fef539" offset="0" id="stop42"></stop>
      <stop style="stop-opacity:1;stop-color:#f57536" offset="1" id="stop44"></stop>
    </radialGradient>
    <clipPath clipPathUnits="userSpaceOnUse" id="clipPath68">
      <path d="M 82.9297,470.219 C 82.9297,447.32 64.3633,428.77 41.4648,428.77 18.5664,428.77 0,447.32 0,470.219 c 0,22.906 18.5664,41.469 41.4648,41.469 22.8985,0 41.4649,-18.563 41.4649,-41.469 z" id="path66"></path>
    </clipPath>
    <radialGradient cx="0" cy="0" r="1" gradientUnits="userSpaceOnUse" gradientTransform="matrix(41.4624,0,0,-41.4624,41.4648,470.229)" spreadMethod="pad" id="radialGradient74">
      <stop style="stop-opacity:1;stop-color:#f79926" offset="0" id="stop70"></stop>
      <stop style="stop-opacity:1;stop-color:#f2591a" offset="1" id="stop72"></stop>
    </radialGradient>
    <clipPath clipPathUnits="userSpaceOnUse" id="clipPath84">
      <path d="m 141.387,463.172 c 0,-6.113 -4.961,-11.067 -11.074,-11.067 -6.114,0 -11.075,4.954 -11.075,11.067 0,6.113 4.961,11.086 11.075,11.086 6.113,0 11.074,-4.973 11.074,-11.086 z" id="path82"></path>
    </clipPath>
    <radialGradient cx="0" cy="0" r="1" gradientUnits="userSpaceOnUse" gradientTransform="matrix(11.0767,0,0,-11.0767,130.313,463.183)" spreadMethod="pad" id="radialGradient90">
      <stop style="stop-opacity:1;stop-color:#f79926" offset="0" id="stop86"></stop>
      <stop style="stop-opacity:1;stop-color:#f2591a" offset="1" id="stop88"></stop>
    </radialGradient>
  </defs>
  <g id="g10" transform="matrix(1.333333, 0, 0, -1.333333, 113.508766, 205.662628)">
    <g id="g12" transform="scale(0.1)">
      <path d="m 367.766,311.016 c -39.817,0 -72.102,32.289 -72.102,72.117 0,2.98 0.234,5.93 0.586,8.805 -26.27,12.226 -55.547,19.085 -86.426,19.085 C 96.4336,411.023 4.53125,319.129 4.53125,205.742 4.53125,92.3516 96.4336,0 209.824,0 c 113.379,0 205.274,92.3516 205.274,205.742 0,39.375 -11.094,76.137 -30.313,107.383 -5.469,-1.324 -11.152,-2.109 -17.019,-2.109" style="fill:#c7cccb;fill-opacity:1;fill-rule:nonzero;stroke:none" id="path14"></path>
      <g id="g16">
        <g id="g18" clip-path="url(#clipPath22)">
          <path d="m 205.293,16.2891 c -90.895,0 -167.9961,59.082 -195,140.9299 C 3.61328,177.465 0,199.098 0,221.582 c 0,113.383 91.9141,205.281 205.293,205.281 30.09,0 58.645,-6.531 84.395,-18.164 -1.336,-4.054 -2.375,-8.258 -3.075,-12.574 -0.652,-4.027 -1.011,-8.156 -1.043,-12.363 0.039,5.383 0.614,10.644 1.637,15.746 -24.961,11.39 -52.676,17.801 -81.914,17.801 -109.0039,0 -197.36331,-88.36 -197.36331,-197.368 0,0 34.43361,-142.1285 195.58631,-142.1285 161.164,0 199.14,142.1285 199.14,142.1285 0,29.551 -6.523,57.539 -18.164,82.704 -5.332,-1.11 -10.851,-1.692 -16.508,-1.707 7.661,0.019 15.055,1.109 22.082,3.089 0.954,0.27 1.903,0.559 2.844,0.86 4.914,-11.043 8.887,-22.598 11.813,-34.563 3.82,-15.621 5.851,-31.941 5.851,-48.742 0,-113.379 -91.902,-205.2929 -205.281,-205.2929 M 367.766,300.938 c -45.403,0 -82.2,36.804 -82.2,82.195 v 0 c 0,-45.391 36.797,-82.195 82.2,-82.195 0.058,0 0.121,0 0.183,0 -0.058,0 -0.125,0 -0.183,0 m -82.2,82.195 c 0,0.062 0,0.125 0,0.187 0,-0.062 0,-0.125 0,-0.187 m 0,0.226 c 0,0.063 0,0.125 0,0.188 0,-0.063 0,-0.125 0,-0.188 m 0,0.204 c 0,0.066 0,0.132 0.004,0.195 -0.004,-0.063 -0.004,-0.129 -0.004,-0.195" style="fill:url(#radialGradient28);fill-opacity:1;fill-rule:nonzero;stroke:none" id="path30"></path>
        </g>
      </g>
      <path d="m 367.949,300.938 c 0.012,0 0.024,0 0.035,0 -0.011,0 -0.023,0 -0.035,0 m -82.383,82.382 c 0,0.016 0,0.028 0,0.039 0,-0.011 0,-0.023 0,-0.039 m 0,0.227 c 0,0.008 0,0.012 0,0.016 0,-0.004 0,-0.008 0,-0.016 m 0.004,0.211 c 0,0.004 0,0.004 0,0.004 0,0 0,0 0,-0.004" style="fill:#d2d6d4;fill-opacity:1;fill-rule:nonzero;stroke:none" id="path32"></path>
      <g id="g34">
        <g id="g36" clip-path="url(#clipPath40)">
          <path d="M 203.516,77.8125 C 42.3633,77.8125 7.92969,219.941 7.92969,219.941 c 0,109.008 88.35941,197.368 197.36331,197.368 29.238,0 56.953,-6.411 81.914,-17.801 -1.023,-5.102 -1.598,-10.363 -1.637,-15.746 0,0 0,0 0,-0.004 -0.004,-0.063 -0.004,-0.129 -0.004,-0.195 0,-0.004 0,-0.008 0,-0.016 0,-0.063 0,-0.125 0,-0.188 0,-0.011 0,-0.023 0,-0.039 0,-0.062 0,-0.125 0,-0.187 v 0 0 0 c 0,-45.391 36.797,-82.195 82.2,-82.195 0.058,0 0.125,0 0.183,0 0.012,0 0.024,0 0.035,0 5.657,0.015 11.176,0.597 16.508,1.707 11.641,-25.165 18.164,-53.153 18.164,-82.704 0,0 -37.976,-142.1285 -199.14,-142.1285" style="fill:url(#radialGradient46);fill-opacity:1;fill-rule:nonzero;stroke:none" id="path48"></path>
        </g>
      </g>
      <path d="m 89.1797,261.578 26.1523,-82.223 27.461,82.223 h 17.812 L 124.531,156.367 H 105.84 L 71.3477,261.578 h 17.832" style="fill:#ffffff;fill-opacity:1;fill-rule:nonzero;stroke:none" id="path50"></path>
      <path d="m 89.1797,261.578 -8.2031,-2.609 34.1564,-107.379 33.859,101.383 h 11.613 v 8.605 l -8.14,2.789 -34.082,-99.394 h -6.309 l -28.8474,88 h 5.9531 v 8.605 l -8.2031,-2.609 8.2031,2.609 v 8.606 H 59.4688 L 99.6055,147.762 H 130.68 l 41.972,122.422 h -36.058 l -21.063,-63.063 -20.0583,63.063 h -6.293 v -8.606" style="fill:#ffffff;fill-opacity:1;fill-rule:nonzero;stroke:none" id="path52"></path>
      <path d="m 187.922,247.113 22.898,-66.136 23.418,66.136 h 21.192 l -34.18,-90.746 h -21.543 l -33.152,90.746 h 21.367" style="fill:#ffffff;fill-opacity:1;fill-rule:nonzero;stroke:none" id="path54"></path>
      <path d="m 187.922,247.113 -8.133,-2.816 30.941,-89.363 29.59,83.574 h 2.672 l -27.695,-73.535 h -9.57 l -26.868,73.535 h 9.063 v 8.605 l -8.133,-2.816 8.133,2.816 v 8.606 h -33.676 l 39.442,-107.957 h 33.515 l 40.664,107.957 h -39.711 l -17.246,-48.703 -16.863,48.703 h -6.125 v -8.606" style="fill:#ffffff;fill-opacity:1;fill-rule:nonzero;stroke:none" id="path56"></path>
      <path d="m 310.52,212.852 c 6.89,0 11.492,1.289 11.492,16.386 0,14.375 -5.176,17.098 -11.492,17.098 h -27.598 v -33.484 z m -44.407,48.726 h 45.703 c 15.372,0 27.012,-7.762 27.012,-32.34 0,-26.593 -12.07,-29.316 -17.246,-30.761 l 20.703,-42.11 h -18.68 l -19.125,40.957 -21.707,2.012 v -42.969 h -16.66 v 105.211" style="fill:#ffffff;fill-opacity:1;fill-rule:nonzero;stroke:none" id="path58"></path>
      <path d="m 310.52,212.852 v -8.606 c 1.984,0.012 4.214,0.055 6.828,0.703 1.937,0.485 4.121,1.406 6.054,2.946 2.957,2.324 4.86,5.73 5.836,9.214 1.008,3.532 1.367,7.391 1.379,12.129 -0.047,8.117 -1.281,14.434 -5.394,19.481 -2.039,2.457 -4.778,4.199 -7.407,5.094 -2.636,0.914 -5.109,1.125 -7.296,1.132 h -36.207 v -50.699 h 36.207 v 8.606 8.605 h -18.993 v 16.273 h 18.993 c 0.968,0.004 1.511,-0.121 1.621,-0.167 h 0.011 l 0.282,0.488 -0.368,-0.43 0.086,-0.058 0.282,0.488 -0.368,-0.43 0.122,0.141 -0.141,-0.121 0.019,-0.02 0.122,0.141 -0.141,-0.121 c 0.019,-0.024 0.363,-0.438 0.715,-1.786 0.351,-1.332 0.648,-3.523 0.644,-6.617 0.004,-3.336 -0.273,-5.644 -0.59,-6.922 l -0.308,-1.011 -0.121,-0.254 1.187,-0.742 -0.836,1.097 -0.351,-0.355 1.187,-0.742 -0.836,1.097 1.02,-1.336 -0.645,1.559 -0.375,-0.223 1.02,-1.336 -0.645,1.559 0.149,-0.359 -0.117,0.371 -0.032,-0.012 0.149,-0.359 -0.117,0.371 c -0.016,-0.032 -0.973,-0.203 -2.625,-0.184 z m -44.407,48.726 v -8.605 h 45.703 c 3.125,0 5.793,-0.407 7.922,-1.137 3.196,-1.156 5.239,-2.68 7.137,-5.856 1.855,-3.191 3.355,-8.515 3.348,-16.742 0,-6 -0.692,-10.328 -1.602,-13.336 -1.422,-4.531 -3.016,-6.062 -4.367,-7.105 -1.426,-1.027 -2.871,-1.457 -4.988,-2.031 l -9.981,-2.789 19.18,-39.004 h -4.86 v -8.606 l 7.797,3.641 -21.211,45.43 -36.023,3.339 v -43.804 h -8.055 v -8.606 h 8.606 v 105.211 h -8.606 v -8.605 8.605 h -8.605 V 147.762 h 33.871 v 42.133 l 7.394,-0.684 19.352,-41.449 h 37.98 l -26.8,54.511 -7.723,-3.796 2.316,-8.289 c 2.368,0.656 9.321,2.308 14.723,8.57 2.715,3.09 4.973,7.156 6.481,12.172 1.511,5.027 2.332,11.011 2.332,18.308 -0.004,6.821 -0.797,12.782 -2.465,18.032 -2.442,7.855 -7.196,14.14 -13.321,17.875 -6.109,3.765 -13.015,5.035 -19.832,5.039 h -54.308 v -8.606 h 8.605" style="fill:#ffffff;fill-opacity:1;fill-rule:nonzero;stroke:none" id="path60"></path>
      <g id="g62">
        <g id="g64" clip-path="url(#clipPath68)">
          <path d="M 82.9297,470.219 C 82.9297,447.32 64.3633,428.77 41.4648,428.77 18.5664,428.77 0,447.32 0,470.219 c 0,22.906 18.5664,41.469 41.4648,41.469 22.8985,0 41.4649,-18.563 41.4649,-41.469" style="fill:url(#radialGradient74);fill-opacity:1;fill-rule:nonzero;stroke:none" id="path76"></path>
        </g>
      </g>
      <g id="g78">
        <g id="g80" clip-path="url(#clipPath84)">
          <path d="m 141.387,463.172 c 0,-6.113 -4.961,-11.067 -11.074,-11.067 -6.114,0 -11.075,4.954 -11.075,11.067 0,6.113 4.961,11.086 11.075,11.086 6.113,0 11.074,-4.973 11.074,-11.086" style="fill:url(#radialGradient90);fill-opacity:1;fill-rule:nonzero;stroke:none" id="path92"></path>
        </g>
      </g>
    </g>
  </g>
</svg>