<?xml version="1.0" encoding="UTF-8" standalone="no"?>
<svg
   xmlns:dc="http://purl.org/dc/elements/1.1/"
   xmlns:cc="http://creativecommons.org/ns#"
   xmlns:rdf="http://www.w3.org/1999/02/22-rdf-syntax-ns#"
   xmlns:svg="http://www.w3.org/2000/svg"
   xmlns="http://www.w3.org/2000/svg"
   xmlns:sodipodi="http://sodipodi.sourceforge.net/DTD/sodipodi-0.dtd"
   xmlns:inkscape="http://www.inkscape.org/namespaces/inkscape"
   version="1.1"
   id="svg2"
   xml:space="preserve"
   width="296.61334"
   height="68.226669"
   viewBox="0 0 296.61334 68.226669"
   sodipodi:docname="VVR logo (1).eps"><metadata
     id="metadata8"><rdf:RDF><cc:Work
         rdf:about=""><dc:format>image/svg+xml</dc:format><dc:type
           rdf:resource="http://purl.org/dc/dcmitype/StillImage" /></cc:Work></rdf:RDF></metadata><defs
     id="defs6"><clipPath
       clipPathUnits="userSpaceOnUse"
       id="clipPath22"><path
         d="m 205.293,16.2891 c -90.895,0 -167.9961,59.082 -195,140.9299 C 3.61328,177.465 0,199.098 0,221.582 c 0,113.383 91.9141,205.281 205.293,205.281 30.09,0 58.645,-6.531 84.395,-18.164 -1.336,-4.054 -2.375,-8.258 -3.075,-12.574 -0.652,-4.027 -1.011,-8.156 -1.043,-12.363 0.039,5.383 0.614,10.644 1.637,15.746 -24.961,11.39 -52.676,17.801 -81.914,17.801 -109.0039,0 -197.36331,-88.36 -197.36331,-197.368 0,0 34.43361,-142.1285 195.58631,-142.1285 161.164,0 199.14,142.1285 199.14,142.1285 0,29.551 -6.523,57.539 -18.164,82.704 -5.332,-1.11 -10.851,-1.692 -16.508,-1.707 7.661,0.019 15.055,1.109 22.082,3.089 0.954,0.27 1.903,0.559 2.844,0.86 4.914,-11.043 8.887,-22.598 11.813,-34.563 3.82,-15.621 5.851,-31.941 5.851,-48.742 0,-113.379 -91.902,-205.2929 -205.281,-205.2929 M 367.766,300.938 c -45.403,0 -82.2,36.804 -82.2,82.195 v 0 c 0,-45.391 36.797,-82.195 82.2,-82.195 0.058,0 0.121,0 0.183,0 -0.058,0 -0.125,0 -0.183,0 m -82.2,82.195 c 0,0.062 0,0.125 0,0.187 0,-0.062 0,-0.125 0,-0.187 m 0,0.226 c 0,0.063 0,0.125 0,0.188 0,-0.063 0,-0.125 0,-0.188 m 0,0.204 c 0,0.066 0,0.132 0.004,0.195 -0.004,-0.063 -0.004,-0.129 -0.004,-0.195"
         id="path20" /></clipPath><radialGradient
       fx="0"
       fy="0"
       cx="0"
       cy="0"
       r="1"
       gradientUnits="userSpaceOnUse"
       gradientTransform="matrix(205.291,0,0,-205.291,205.288,221.582)"
       spreadMethod="pad"
       id="radialGradient28"><stop
         style="stop-opacity:1;stop-color:#fef207"
         offset="0"
         id="stop24" /><stop
         style="stop-opacity:1;stop-color:#f2591a"
         offset="1"
         id="stop26" /></radialGradient><clipPath
       clipPathUnits="userSpaceOnUse"
       id="clipPath40"><path
         d="M 203.516,77.8125 C 42.3633,77.8125 7.92969,219.941 7.92969,219.941 c 0,109.008 88.35941,197.368 197.36331,197.368 29.238,0 56.953,-6.411 81.914,-17.801 -1.023,-5.102 -1.598,-10.363 -1.637,-15.746 0,0 0,0 0,-0.004 -0.004,-0.063 -0.004,-0.129 -0.004,-0.195 0,-0.004 0,-0.008 0,-0.016 0,-0.063 0,-0.125 0,-0.188 0,-0.011 0,-0.023 0,-0.039 0,-0.062 0,-0.125 0,-0.187 v 0 0 0 c 0,-45.391 36.797,-82.195 82.2,-82.195 0.058,0 0.125,0 0.183,0 0.012,0 0.024,0 0.035,0 5.657,0.015 11.176,0.597 16.508,1.707 11.641,-25.165 18.164,-53.153 18.164,-82.704 0,0 -37.976,-142.1285 -199.14,-142.1285"
         id="path38" /></clipPath><radialGradient
       fx="0"
       fy="0"
       cx="0"
       cy="0"
       r="1"
       gradientUnits="userSpaceOnUse"
       gradientTransform="matrix(205.291,0,0,-205.291,205.288,221.582)"
       spreadMethod="pad"
       id="radialGradient46"><stop
         style="stop-opacity:1;stop-color:#fef539"
         offset="0"
         id="stop42" /><stop
         style="stop-opacity:1;stop-color:#f57536"
         offset="1"
         id="stop44" /></radialGradient><clipPath
       clipPathUnits="userSpaceOnUse"
       id="clipPath68"><path
         d="M 82.9297,470.219 C 82.9297,447.32 64.3633,428.77 41.4648,428.77 18.5664,428.77 0,447.32 0,470.219 c 0,22.906 18.5664,41.469 41.4648,41.469 22.8985,0 41.4649,-18.563 41.4649,-41.469 z"
         id="path66" /></clipPath><radialGradient
       fx="0"
       fy="0"
       cx="0"
       cy="0"
       r="1"
       gradientUnits="userSpaceOnUse"
       gradientTransform="matrix(41.4624,0,0,-41.4624,41.4648,470.229)"
       spreadMethod="pad"
       id="radialGradient74"><stop
         style="stop-opacity:1;stop-color:#f79926"
         offset="0"
         id="stop70" /><stop
         style="stop-opacity:1;stop-color:#f2591a"
         offset="1"
         id="stop72" /></radialGradient><clipPath
       clipPathUnits="userSpaceOnUse"
       id="clipPath84"><path
         d="m 141.387,463.172 c 0,-6.113 -4.961,-11.067 -11.074,-11.067 -6.114,0 -11.075,4.954 -11.075,11.067 0,6.113 4.961,11.086 11.075,11.086 6.113,0 11.074,-4.973 11.074,-11.086 z"
         id="path82" /></clipPath><radialGradient
       fx="0"
       fy="0"
       cx="0"
       cy="0"
       r="1"
       gradientUnits="userSpaceOnUse"
       gradientTransform="matrix(11.0767,0,0,-11.0767,130.313,463.183)"
       spreadMethod="pad"
       id="radialGradient90"><stop
         style="stop-opacity:1;stop-color:#f79926"
         offset="0"
         id="stop86" /><stop
         style="stop-opacity:1;stop-color:#f2591a"
         offset="1"
         id="stop88" /></radialGradient></defs><sodipodi:namedview
     pagecolor="#ffffff"
     bordercolor="#666666"
     borderopacity="1"
     objecttolerance="10"
     gridtolerance="10"
     guidetolerance="10"
     inkscape:pageopacity="0"
     inkscape:pageshadow="2"
     inkscape:window-width="640"
     inkscape:window-height="480"
     id="namedview4" /><g
     id="g10"
     inkscape:groupmode="layer"
     inkscape:label="ink_ext_XXXXXX"
     transform="matrix(1.3333333,0,0,-1.3333333,0,68.226667)"><g
       id="g12"
       transform="scale(0.1)"><path
         d="m 367.766,311.016 c -39.817,0 -72.102,32.289 -72.102,72.117 0,2.98 0.234,5.93 0.586,8.805 -26.27,12.226 -55.547,19.085 -86.426,19.085 C 96.4336,411.023 4.53125,319.129 4.53125,205.742 4.53125,92.3516 96.4336,0 209.824,0 c 113.379,0 205.274,92.3516 205.274,205.742 0,39.375 -11.094,76.137 -30.313,107.383 -5.469,-1.324 -11.152,-2.109 -17.019,-2.109"
         style="fill:#c7cccb;fill-opacity:1;fill-rule:nonzero;stroke:none"
         id="path14" /><g
         id="g16"><g
           id="g18"
           clip-path="url(#clipPath22)"><path
             d="m 205.293,16.2891 c -90.895,0 -167.9961,59.082 -195,140.9299 C 3.61328,177.465 0,199.098 0,221.582 c 0,113.383 91.9141,205.281 205.293,205.281 30.09,0 58.645,-6.531 84.395,-18.164 -1.336,-4.054 -2.375,-8.258 -3.075,-12.574 -0.652,-4.027 -1.011,-8.156 -1.043,-12.363 0.039,5.383 0.614,10.644 1.637,15.746 -24.961,11.39 -52.676,17.801 -81.914,17.801 -109.0039,0 -197.36331,-88.36 -197.36331,-197.368 0,0 34.43361,-142.1285 195.58631,-142.1285 161.164,0 199.14,142.1285 199.14,142.1285 0,29.551 -6.523,57.539 -18.164,82.704 -5.332,-1.11 -10.851,-1.692 -16.508,-1.707 7.661,0.019 15.055,1.109 22.082,3.089 0.954,0.27 1.903,0.559 2.844,0.86 4.914,-11.043 8.887,-22.598 11.813,-34.563 3.82,-15.621 5.851,-31.941 5.851,-48.742 0,-113.379 -91.902,-205.2929 -205.281,-205.2929 M 367.766,300.938 c -45.403,0 -82.2,36.804 -82.2,82.195 v 0 c 0,-45.391 36.797,-82.195 82.2,-82.195 0.058,0 0.121,0 0.183,0 -0.058,0 -0.125,0 -0.183,0 m -82.2,82.195 c 0,0.062 0,0.125 0,0.187 0,-0.062 0,-0.125 0,-0.187 m 0,0.226 c 0,0.063 0,0.125 0,0.188 0,-0.063 0,-0.125 0,-0.188 m 0,0.204 c 0,0.066 0,0.132 0.004,0.195 -0.004,-0.063 -0.004,-0.129 -0.004,-0.195"
             style="fill:url(#radialGradient28);fill-opacity:1;fill-rule:nonzero;stroke:none"
             id="path30" /></g></g><path
         d="m 367.949,300.938 c 0.012,0 0.024,0 0.035,0 -0.011,0 -0.023,0 -0.035,0 m -82.383,82.382 c 0,0.016 0,0.028 0,0.039 0,-0.011 0,-0.023 0,-0.039 m 0,0.227 c 0,0.008 0,0.012 0,0.016 0,-0.004 0,-0.008 0,-0.016 m 0.004,0.211 c 0,0.004 0,0.004 0,0.004 0,0 0,0 0,-0.004"
         style="fill:#d2d6d4;fill-opacity:1;fill-rule:nonzero;stroke:none"
         id="path32" /><g
         id="g34"><g
           id="g36"
           clip-path="url(#clipPath40)"><path
             d="M 203.516,77.8125 C 42.3633,77.8125 7.92969,219.941 7.92969,219.941 c 0,109.008 88.35941,197.368 197.36331,197.368 29.238,0 56.953,-6.411 81.914,-17.801 -1.023,-5.102 -1.598,-10.363 -1.637,-15.746 0,0 0,0 0,-0.004 -0.004,-0.063 -0.004,-0.129 -0.004,-0.195 0,-0.004 0,-0.008 0,-0.016 0,-0.063 0,-0.125 0,-0.188 0,-0.011 0,-0.023 0,-0.039 0,-0.062 0,-0.125 0,-0.187 v 0 0 0 c 0,-45.391 36.797,-82.195 82.2,-82.195 0.058,0 0.125,0 0.183,0 0.012,0 0.024,0 0.035,0 5.657,0.015 11.176,0.597 16.508,1.707 11.641,-25.165 18.164,-53.153 18.164,-82.704 0,0 -37.976,-142.1285 -199.14,-142.1285"
             style="fill:url(#radialGradient46);fill-opacity:1;fill-rule:nonzero;stroke:none"
             id="path48" /></g></g><path
         d="m 89.1797,261.578 26.1523,-82.223 27.461,82.223 h 17.812 L 124.531,156.367 H 105.84 L 71.3477,261.578 h 17.832"
         style="fill:#ffffff;fill-opacity:1;fill-rule:nonzero;stroke:none"
         id="path50" /><path
         d="m 89.1797,261.578 -8.2031,-2.609 34.1564,-107.379 33.859,101.383 h 11.613 v 8.605 l -8.14,2.789 -34.082,-99.394 h -6.309 l -28.8474,88 h 5.9531 v 8.605 l -8.2031,-2.609 8.2031,2.609 v 8.606 H 59.4688 L 99.6055,147.762 H 130.68 l 41.972,122.422 h -36.058 l -21.063,-63.063 -20.0583,63.063 h -6.293 v -8.606"
         style="fill:#ffffff;fill-opacity:1;fill-rule:nonzero;stroke:none"
         id="path52" /><path
         d="m 187.922,247.113 22.898,-66.136 23.418,66.136 h 21.192 l -34.18,-90.746 h -21.543 l -33.152,90.746 h 21.367"
         style="fill:#ffffff;fill-opacity:1;fill-rule:nonzero;stroke:none"
         id="path54" /><path
         d="m 187.922,247.113 -8.133,-2.816 30.941,-89.363 29.59,83.574 h 2.672 l -27.695,-73.535 h -9.57 l -26.868,73.535 h 9.063 v 8.605 l -8.133,-2.816 8.133,2.816 v 8.606 h -33.676 l 39.442,-107.957 h 33.515 l 40.664,107.957 h -39.711 l -17.246,-48.703 -16.863,48.703 h -6.125 v -8.606"
         style="fill:#ffffff;fill-opacity:1;fill-rule:nonzero;stroke:none"
         id="path56" /><path
         d="m 310.52,212.852 c 6.89,0 11.492,1.289 11.492,16.386 0,14.375 -5.176,17.098 -11.492,17.098 h -27.598 v -33.484 z m -44.407,48.726 h 45.703 c 15.372,0 27.012,-7.762 27.012,-32.34 0,-26.593 -12.07,-29.316 -17.246,-30.761 l 20.703,-42.11 h -18.68 l -19.125,40.957 -21.707,2.012 v -42.969 h -16.66 v 105.211"
         style="fill:#ffffff;fill-opacity:1;fill-rule:nonzero;stroke:none"
         id="path58" /><path
         d="m 310.52,212.852 v -8.606 c 1.984,0.012 4.214,0.055 6.828,0.703 1.937,0.485 4.121,1.406 6.054,2.946 2.957,2.324 4.86,5.73 5.836,9.214 1.008,3.532 1.367,7.391 1.379,12.129 -0.047,8.117 -1.281,14.434 -5.394,19.481 -2.039,2.457 -4.778,4.199 -7.407,5.094 -2.636,0.914 -5.109,1.125 -7.296,1.132 h -36.207 v -50.699 h 36.207 v 8.606 8.605 h -18.993 v 16.273 h 18.993 c 0.968,0.004 1.511,-0.121 1.621,-0.167 h 0.011 l 0.282,0.488 -0.368,-0.43 0.086,-0.058 0.282,0.488 -0.368,-0.43 0.122,0.141 -0.141,-0.121 0.019,-0.02 0.122,0.141 -0.141,-0.121 c 0.019,-0.024 0.363,-0.438 0.715,-1.786 0.351,-1.332 0.648,-3.523 0.644,-6.617 0.004,-3.336 -0.273,-5.644 -0.59,-6.922 l -0.308,-1.011 -0.121,-0.254 1.187,-0.742 -0.836,1.097 -0.351,-0.355 1.187,-0.742 -0.836,1.097 1.02,-1.336 -0.645,1.559 -0.375,-0.223 1.02,-1.336 -0.645,1.559 0.149,-0.359 -0.117,0.371 -0.032,-0.012 0.149,-0.359 -0.117,0.371 c -0.016,-0.032 -0.973,-0.203 -2.625,-0.184 z m -44.407,48.726 v -8.605 h 45.703 c 3.125,0 5.793,-0.407 7.922,-1.137 3.196,-1.156 5.239,-2.68 7.137,-5.856 1.855,-3.191 3.355,-8.515 3.348,-16.742 0,-6 -0.692,-10.328 -1.602,-13.336 -1.422,-4.531 -3.016,-6.062 -4.367,-7.105 -1.426,-1.027 -2.871,-1.457 -4.988,-2.031 l -9.981,-2.789 19.18,-39.004 h -4.86 v -8.606 l 7.797,3.641 -21.211,45.43 -36.023,3.339 v -43.804 h -8.055 v -8.606 h 8.606 v 105.211 h -8.606 v -8.605 8.605 h -8.605 V 147.762 h 33.871 v 42.133 l 7.394,-0.684 19.352,-41.449 h 37.98 l -26.8,54.511 -7.723,-3.796 2.316,-8.289 c 2.368,0.656 9.321,2.308 14.723,8.57 2.715,3.09 4.973,7.156 6.481,12.172 1.511,5.027 2.332,11.011 2.332,18.308 -0.004,6.821 -0.797,12.782 -2.465,18.032 -2.442,7.855 -7.196,14.14 -13.321,17.875 -6.109,3.765 -13.015,5.035 -19.832,5.039 h -54.308 v -8.606 h 8.605"
         style="fill:#ffffff;fill-opacity:1;fill-rule:nonzero;stroke:none"
         id="path60" /><g
         id="g62"><g
           id="g64"
           clip-path="url(#clipPath68)"><path
             d="M 82.9297,470.219 C 82.9297,447.32 64.3633,428.77 41.4648,428.77 18.5664,428.77 0,447.32 0,470.219 c 0,22.906 18.5664,41.469 41.4648,41.469 22.8985,0 41.4649,-18.563 41.4649,-41.469"
             style="fill:url(#radialGradient74);fill-opacity:1;fill-rule:nonzero;stroke:none"
             id="path76" /></g></g><g
         id="g78"><g
           id="g80"
           clip-path="url(#clipPath84)"><path
             d="m 141.387,463.172 c 0,-6.113 -4.961,-11.067 -11.074,-11.067 -6.114,0 -11.075,4.954 -11.075,11.067 0,6.113 4.961,11.086 11.075,11.086 6.113,0 11.074,-4.973 11.074,-11.086"
             style="fill:url(#radialGradient90);fill-opacity:1;fill-rule:nonzero;stroke:none"
             id="path92" /></g></g><path
         d="M 484.414,261.363 501.68,198.984 520,261.363 h 20.598 L 513.105,174.219 H 490 l -26.191,87.144 h 20.605"
         style="fill:#72757a;fill-opacity:1;fill-rule:nonzero;stroke:none"
         id="path94" /><path
         d="m 549.648,242.313 c 0,16.425 12.012,19.16 20.352,19.05 0,0 28.215,-0.48 38.574,-1.906 v -16.312 h -33.222 c -6.18,0 -6.18,-3.438 -6.18,-6.661 v -9.882 l 33.808,-1.192 v -16.191 l -33.808,-1.074 v -9.883 c 0,-6.301 3.933,-6.192 7.383,-6.192 h 32.019 v -16.183 c -9.172,-1.192 -37.383,-2.02 -37.383,-2.02 -7.734,-0.351 -21.543,1.309 -21.543,18.457 v 49.989"
         style="fill:#72757a;fill-opacity:1;fill-rule:nonzero;stroke:none"
         id="path96" /><path
         d="m 659.043,222.91 c 5.957,0 7.617,2.266 7.617,10.957 0,7.735 -2.383,10.59 -7.617,10.59 H 642.5 V 222.91 Z m -36.184,38.453 h 38.45 c 14.406,0 25.117,-6.308 25.117,-27.496 0,-21.191 -8.086,-24.054 -13.446,-25.957 l 15.829,-33.691 H 666.66 l -12.969,32.031 -11.308,1.66 v -33.691 h -19.524 v 87.144"
         style="fill:#72757a;fill-opacity:1;fill-rule:nonzero;stroke:none"
         id="path98" /><path
         d="m 701.902,242.313 c 0,16.425 12.024,19.16 20.364,19.05 0,0 28.203,-0.48 38.562,-1.906 v -16.312 h -33.211 c -6.191,0 -6.191,-3.438 -6.191,-6.661 v -9.882 l 33.808,-1.192 v -16.191 l -33.808,-1.074 v -9.883 c 0,-6.301 3.926,-6.192 7.383,-6.192 h 32.019 v -16.183 c -9.168,-1.192 -37.383,-2.02 -37.383,-2.02 -7.742,-0.351 -21.543,1.309 -21.543,18.457 v 49.989"
         style="fill:#72757a;fill-opacity:1;fill-rule:nonzero;stroke:none"
         id="path100" /><path
         d="m 775.828,261.363 h 19.758 l 30.234,-51.07 v 51.07 h 19.532 V 174.219 H 825.82 l -30.351,50.242 v -50.242 h -19.641 v 87.144"
         style="fill:#72757a;fill-opacity:1;fill-rule:nonzero;stroke:none"
         id="path102" /><path
         d="m 862.371,261.363 h 19.524 v -87.144 h -19.524 v 87.144"
         style="fill:#72757a;fill-opacity:1;fill-rule:nonzero;stroke:none"
         id="path104" /><path
         d="m 925.586,262.32 c 15.703,0 20.469,-0.484 34.641,-4.054 v -15.121 c -0.715,0 -15,2.265 -29.289,2.265 -12.266,0 -14.52,-6.789 -14.52,-27.375 0,-21.199 1.785,-26.316 13.211,-26.316 7.851,-0.117 12.148,5.488 12.148,5.488 v 12.606 h -9.297 v 12.257 c 5.247,2.391 12.508,2.871 20.723,2.871 2.617,0 5.235,0 8.086,-0.234 V 174.219 H 947.48 l -5.468,5.84 c -3.574,-3.938 -6.914,-5.957 -16.785,-6.426 -24.641,-1.192 -28.332,19.883 -28.332,44.637 0,25.832 5,44.05 28.691,44.05"
         style="fill:#72757a;fill-opacity:1;fill-rule:nonzero;stroke:none"
         id="path106" /><path
         d="m 977.961,261.363 h 19.519 v -87.144 h -19.519 v 87.144"
         style="fill:#72757a;fill-opacity:1;fill-rule:nonzero;stroke:none"
         id="path108" /><path
         d="m 1014.51,261.363 h 19.76 l 30.23,-51.07 v 51.07 h 19.53 v -87.144 h -19.53 l -30.35,50.242 v -50.242 h -19.64 v 87.144"
         style="fill:#72757a;fill-opacity:1;fill-rule:nonzero;stroke:none"
         id="path110" /><path
         d="m 1127.71,262.32 c 15.72,0 20.48,-0.484 34.64,-4.054 v -15.121 c -0.71,0 -15,2.265 -29.28,2.265 -12.26,0 -14.52,-6.789 -14.52,-27.375 0,-21.199 1.79,-26.316 13.21,-26.316 7.86,-0.117 12.15,5.488 12.15,5.488 v 12.606 h -9.28 v 12.257 c 5.23,2.391 12.49,2.871 20.7,2.871 2.62,0 5.24,0 8.1,-0.234 v -50.488 h -13.81 l -5.48,5.84 c -3.56,-3.938 -6.89,-5.957 -16.78,-6.426 -24.65,-1.192 -28.33,19.883 -28.33,44.637 0,25.832 4.99,44.05 28.68,44.05"
         style="fill:#72757a;fill-opacity:1;fill-rule:nonzero;stroke:none"
         id="path112" /><path
         d="m 1233.54,261.363 17.26,-62.379 18.34,62.379 h 20.59 l -27.49,-87.144 h -23.1 l -26.19,87.144 h 20.59"
         style="fill:#72757a;fill-opacity:1;fill-rule:nonzero;stroke:none"
         id="path114" /><path
         d="m 1332.71,208.633 -8.22,27.734 -9.04,-27.734 z m -19.76,52.73 h 22.62 l 27.5,-87.144 h -20.36 l -5.72,17.5 h -26.31 l -5.72,-17.5 h -20.47 l 28.46,87.144"
         style="fill:#72757a;fill-opacity:1;fill-rule:nonzero;stroke:none"
         id="path116" /><path
         d="m 1376.64,261.363 h 19.76 l 30.23,-51.07 v 51.07 h 19.53 v -87.144 h -19.53 l -30.35,50.242 v -50.242 h -19.64 v 87.144"
         style="fill:#72757a;fill-opacity:1;fill-rule:nonzero;stroke:none"
         id="path118" /><path
         d="m 1534.37,222.91 c 5.95,0 7.61,2.266 7.61,10.957 0,7.735 -2.38,10.59 -7.61,10.59 h -16.56 V 222.91 Z m -36.19,38.453 h 38.45 c 14.41,0 25.12,-6.308 25.12,-27.496 0,-21.191 -8.1,-24.054 -13.45,-25.957 l 15.83,-33.691 h -22.15 l -12.98,32.031 -11.29,1.66 v -33.691 h -19.53 v 87.144"
         style="fill:#72757a;fill-opacity:1;fill-rule:nonzero;stroke:none"
         id="path120" /><path
         d="m 1577.23,242.313 c 0,16.425 12.01,19.16 20.35,19.05 0,0 28.21,-0.48 38.56,-1.906 v -16.312 h -33.21 c -6.19,0 -6.19,-3.438 -6.19,-6.661 v -9.882 l 33.82,-1.192 v -16.191 l -33.82,-1.074 v -9.883 c 0,-6.301 3.93,-6.192 7.39,-6.192 h 32.01 v -16.183 c -9.17,-1.192 -37.37,-2.02 -37.37,-2.02 -7.73,-0.351 -21.54,1.309 -21.54,18.457 v 49.989"
         style="fill:#72757a;fill-opacity:1;fill-rule:nonzero;stroke:none"
         id="path122" /><path
         d="m 1677.81,262.32 c 15.73,0 20.48,-0.484 34.65,-4.054 v -15.121 c -0.72,0 -15,2.265 -29.29,2.265 -12.25,0 -14.52,-6.789 -14.52,-27.375 0,-21.199 1.78,-26.316 13.22,-26.316 7.85,-0.117 12.13,5.488 12.13,5.488 v 12.606 h -9.27 v 12.257 c 5.23,2.391 12.5,2.871 20.7,2.871 2.62,0 5.23,0 8.1,-0.234 v -50.488 h -13.8 l -5.49,5.84 c -3.58,-3.938 -6.9,-5.957 -16.78,-6.426 -24.65,-1.192 -28.33,19.883 -28.33,44.637 0,25.832 4.99,44.05 28.68,44.05"
         style="fill:#72757a;fill-opacity:1;fill-rule:nonzero;stroke:none"
         id="path124" /><path
         d="m 1730.2,261.363 h 19.52 v -87.144 h -19.52 v 87.144"
         style="fill:#72757a;fill-opacity:1;fill-rule:nonzero;stroke:none"
         id="path126" /><path
         d="m 1765.55,239.102 c 0,17.261 10.23,22.734 23.57,22.976 14.77,0.352 27.38,-1.074 35.12,-3.691 v -15.242 c -7.62,0.718 -22.97,1.191 -28.93,1.191 -6.9,0.121 -10.23,-0.352 -10.23,-7.023 v -2.977 c 0,-5.469 1.78,-7.141 8.32,-7.141 h 12.63 c 17.6,0 21.42,-14.519 21.42,-24.05 v -5 c 0,-20.832 -12.38,-24.875 -24.17,-24.875 -18.2,0 -24.74,0.48 -35,3.8 v 15.254 c 4.77,-0.488 19.42,-1.32 30.6,-1.32 5.01,0 9.05,1.066 9.05,6.309 v 3.449 c 0,4.297 -1.31,6.914 -7.14,6.914 h -12.27 c -21.78,0 -22.97,17.265 -22.97,24.043 v 7.383"
         style="fill:#72757a;fill-opacity:1;fill-rule:nonzero;stroke:none"
         id="path128" /><path
         d="m 1836.39,261.363 h 65.82 v -17.742 h -23.46 v -69.402 h -19.51 v 69.402 h -22.85 v 17.742"
         style="fill:#72757a;fill-opacity:1;fill-rule:nonzero;stroke:none"
         id="path130" /><path
         d="m 1952.44,222.91 c 5.96,0 7.62,2.266 7.62,10.957 0,7.735 -2.37,10.59 -7.62,10.59 H 1935.9 V 222.91 Z m -36.19,38.453 h 38.46 c 14.41,0 25.11,-6.308 25.11,-27.496 0,-21.191 -8.09,-24.054 -13.44,-25.957 l 15.83,-33.691 h -22.15 l -12.97,32.031 -11.31,1.66 v -33.691 h -19.53 v 87.144"
         style="fill:#72757a;fill-opacity:1;fill-rule:nonzero;stroke:none"
         id="path132" /><path
         d="m 2041.13,208.633 -8.21,27.734 -9.04,-27.734 z m -19.75,52.73 h 22.6 l 27.51,-87.144 h -20.36 l -5.71,17.5 h -26.32 l -5.7,-17.5 h -20.47 l 28.45,87.144"
         style="fill:#72757a;fill-opacity:1;fill-rule:nonzero;stroke:none"
         id="path134" /><path
         d="m 2120.54,222.91 c 5.94,0 7.61,2.266 7.61,10.957 0,7.735 -2.38,10.59 -7.61,10.59 h -16.56 V 222.91 Z m -36.18,38.453 h 38.44 c 14.4,0 25.12,-6.308 25.12,-27.496 0,-21.191 -8.1,-24.054 -13.46,-25.957 l 15.83,-33.691 h -22.14 l -12.97,32.031 -11.31,1.66 v -33.691 h -19.51 v 87.144"
         style="fill:#72757a;fill-opacity:1;fill-rule:nonzero;stroke:none"
         id="path136" /><path
         d="m 2162.69,239.102 c 0,17.261 10.22,22.734 23.56,22.976 14.76,0.352 27.37,-1.074 35.12,-3.691 v -15.242 c -7.63,0.718 -22.98,1.191 -28.93,1.191 -6.91,0.121 -10.24,-0.352 -10.24,-7.023 v -2.977 c 0,-5.469 1.77,-7.141 8.33,-7.141 h 12.61 c 17.62,0 21.45,-14.519 21.45,-24.05 v -5 c 0,-20.832 -12.39,-24.875 -24.17,-24.875 -18.22,0 -24.77,0.48 -35.01,3.8 v 15.254 c 4.77,-0.488 19.4,-1.32 30.61,-1.32 4.99,0 9.03,1.066 9.03,6.309 v 3.449 c 0,4.297 -1.3,6.914 -7.13,6.914 h -12.27 c -21.78,0 -22.96,17.265 -22.96,24.043 v 7.383"
         style="fill:#72757a;fill-opacity:1;fill-rule:nonzero;stroke:none"
         id="path138" /></g></g></svg>
